#N canvas 0 0 922 1018 12;
#X obj 7 15 r energy;
#X obj 215 15 r timbre;
#X obj 586 17 r reverb;
#X obj 10 211 dac~;
#X obj 72 137 rev3~ 110 50 3000 0, f 29;
#X obj 192 109 + 70;
#X obj 192 84 * 25;
#X obj 424 15 r resonance;
#N canvas 0 49 924 1001 rev-xfade 0;
#X obj 30 270 +~;
#X obj 29 221 *~;
#X obj 108 196 *~;
#X obj 46 92 * -1;
#X obj 46 117 + 1;
#X msg 46 142 \$1 10;
#X obj 46 167 line~;
#X msg 125 137 \$1 10;
#X obj 125 162 line~;
#X obj 185 196 *~;
#X msg 202 137 \$1 10;
#X obj 202 162 line~;
#X obj 168 270 +~;
#X obj 108 221 *~ 0.5;
#X obj 185 221 *~ 0.5;
#X obj 29 41 inlet~;
#X obj 107 41 inlet~;
#X obj 185 41 inlet~;
#X obj 276 41 inlet;
#X obj 30 302 outlet~;
#X obj 168 302 outlet~;
#X connect 0 0 19 0;
#X connect 1 0 0 0;
#X connect 1 0 12 0;
#X connect 2 0 13 0;
#X connect 3 0 4 0;
#X connect 4 0 5 0;
#X connect 5 0 6 0;
#X connect 6 0 1 1;
#X connect 7 0 8 0;
#X connect 8 0 2 1;
#X connect 9 0 14 0;
#X connect 10 0 11 0;
#X connect 11 0 9 1;
#X connect 12 0 20 0;
#X connect 13 0 0 1;
#X connect 14 0 12 1;
#X connect 15 0 1 0;
#X connect 16 0 2 0;
#X connect 17 0 9 0;
#X connect 18 0 3 0;
#X connect 18 0 7 0;
#X connect 18 0 10 0;
#X restore 9 174 pd rev-xfade;
#X f 28;
#X obj 873 97 t f;
#X obj 873 47 loadbang;
#X msg 873 72 64;
#X obj 111 15 r frequency;
#X obj 320 15 r cutoff;
#N canvas 0 0 1377 1020 libmapper 0;
#X obj 15 126 mapper @alias studysynth;
#X obj 15 15 loadbang;
#X msg 15 101 add input \$1 @type f @units normalized @min 0 @max 1
;
#X obj 22 304 send;
#X obj 15 170 list split 1;
#X obj 105 234 list;
#X obj 15 199 t b a;
#X obj 105 259 list trim;
#X obj 101 305 symbol;
#X obj 15 71 list;
#X obj 47 252 symbol;
#X msg 417 101 add input frequency @type f @units MIDI-note-number
@min 0 @max 127;
#X msg 15 40 energy \, timbre \, cutoff \, resonance \, reverb \, slew
;
#X connect 0 0 4 0;
#X connect 1 0 12 0;
#X connect 1 0 11 0;
#X connect 2 0 0 0;
#X connect 4 0 6 0;
#X connect 4 1 5 1;
#X connect 5 0 7 0;
#X connect 6 0 5 0;
#X connect 6 1 10 0;
#X connect 7 0 3 0;
#X connect 9 0 2 0;
#X connect 10 0 3 1;
#X connect 11 0 0 0;
#X connect 12 0 9 0;
#X restore 430 192 pd libmapper;
#X obj 923 342 * 127;
#X obj 923 315 r energy;
#X obj 935 843 r timbre;
#X obj 935 870 * 127;
#X obj 925 739 * 127;
#X obj 925 712 r reverb;
#X obj 913 590 * 127;
#X obj 915 563 r resonance;
#X obj 927 197 * 127;
#X obj 830 448 r frequency;
#X obj 927 170 r cutoff;
#X obj 1012 225 hsl 256 50 0 127 0 0 empty empty empty -2 -8 0 10 #fcfcfc
#000000 #000000 0 1;
#X obj 1011 319 hsl 256 50 0 127 0 0 empty empty empty -2 -8 0 10 #fcfcfc
#000000 #000000 0 1;
#X text 1007 298 energy;
#X obj 1009 406 hsl 256 50 0 127 0 0 empty empty empty -2 -8 0 10 #fcfcfc
#000000 #000000 0 1;
#X obj 1012 492 hsl 256 50 0 127 0 0 empty empty empty -2 -8 0 10 #fcfcfc
#000000 #000000 0 1;
#X text 1008 472 resonance;
#X text 1007 389 frequency;
#X text 1008 205 cutoff;
#X obj 1013 580 hsl 256 50 0 127 0 0 empty empty empty -2 -8 0 10 #fcfcfc
#000000 #000000 0 1;
#X text 1010 560 reverb;
#X obj 1013 768 hsl 256 50 0 127 0 0 empty empty empty -2 -8 0 10 #fcfcfc
#000000 #000000 0 1;
#X text 1009 743 timbre;
#X msg 927 223 set \$1;
#X msg 922 367 set \$1;
#X msg 830 471 set \$1;
#X msg 913 622 set \$1;
#X msg 930 765 set \$1;
#X msg 935 904 set \$1;
#X obj 923 282 s cutoff;
#X obj 923 259 / 127;
#X obj 586 64 t f;
#X obj 919 427 s energy;
#X obj 919 402 / 127;
#X obj 817 573 s frequency;
#X obj 909 652 / 127;
#X obj 909 675 s resonance;
#X obj 926 818 s reverb;
#X obj 926 793 / 127;
#X obj 930 932 / 127;
#X obj 931 955 s timbre;
#X obj 757 627 * 127;
#X obj 1015 680 hsl 256 50 0 127 0 0 empty empty empty -2 -8 0 10 #fcfcfc
#000000 #000000 0 1;
#X msg 757 661 set \$1;
#X obj 750 727 / 127;
#X obj 757 600 r slew;
#X obj 751 750 s slew;
#X text 1010 656 slew;
#X obj 7 48 study-synth-core, f 75;
#X obj 529 15 r slew;
#X connect 0 0 63 0;
#X connect 1 0 63 2;
#X connect 2 0 46 0;
#X connect 4 0 8 1;
#X connect 4 1 8 2;
#X connect 5 0 4 3;
#X connect 6 0 5 0;
#X connect 7 0 63 4;
#X connect 8 0 3 0;
#X connect 8 1 3 1;
#X connect 9 0 26 0;
#X connect 9 0 27 0;
#X connect 9 0 29 0;
#X connect 9 0 30 0;
#X connect 9 0 34 0;
#X connect 9 0 36 0;
#X connect 9 0 57 0;
#X connect 10 0 11 0;
#X connect 11 0 9 0;
#X connect 12 0 63 1;
#X connect 13 0 63 3;
#X connect 15 0 39 0;
#X connect 16 0 15 0;
#X connect 17 0 18 0;
#X connect 18 0 43 0;
#X connect 19 0 42 0;
#X connect 20 0 19 0;
#X connect 21 0 41 0;
#X connect 22 0 21 0;
#X connect 23 0 38 0;
#X connect 24 0 40 0;
#X connect 25 0 23 0;
#X connect 26 0 45 0;
#X connect 27 0 48 0;
#X connect 29 0 49 0;
#X connect 30 0 50 0;
#X connect 34 0 53 0;
#X connect 36 0 54 0;
#X connect 38 0 26 0;
#X connect 39 0 27 0;
#X connect 40 0 29 0;
#X connect 41 0 30 0;
#X connect 42 0 34 0;
#X connect 43 0 36 0;
#X connect 45 0 44 0;
#X connect 46 0 6 0;
#X connect 46 0 8 3;
#X connect 48 0 47 0;
#X connect 50 0 51 0;
#X connect 53 0 52 0;
#X connect 54 0 55 0;
#X connect 56 0 58 0;
#X connect 57 0 59 0;
#X connect 58 0 57 0;
#X connect 59 0 61 0;
#X connect 60 0 56 0;
#X connect 63 0 4 1;
#X connect 63 0 4 0;
#X connect 63 0 8 0;
#X connect 64 0 63 5;
#X coords 0 -1 1 1 280 700 1 1000 150;
