#N canvas 0 19 922 999 12;
#N canvas 0 0 1377 1020 fb-fm-osc 0;
#X obj 152 165 phasor~;
#X obj 326 142 line~;
#X obj 20 229 *~, f 9;
#X obj 20 200 line~;
#N canvas 0 0 1377 1020 fb-fm-core 0;
#X obj 29 98 +~;
#X obj 29 123 cos~;
#X obj 175 146 block~ 1;
#X obj 88 156 *~;
#X obj 175 116 array define fm-fb 1;
#X obj 29 28 inlet~;
#X obj 174 193 tabsend~ fm-fb;
#X obj 175 52 *~ 0.5;
#X obj 175 27 tabreceive~ fm-fb;
#X obj 107 27 inlet~;
#X obj 29 193 outlet~;
#X obj 175 77 rzero~ -1;
#X connect 0 0 1 0;
#X connect 1 0 3 0;
#X connect 1 0 10 0;
#X connect 3 0 6 0;
#X connect 5 0 0 0;
#X connect 7 0 11 0;
#X connect 8 0 7 0;
#X connect 9 0 3 1;
#X connect 11 0 0 1;
#X restore 152 195 pd fb-fm-core;
#X obj 153 136 line~;
#X obj 153 14 inlet;
#X obj 326 38 inlet;
#X obj 19 25 inlet;
#X obj 20 276 outlet~;
#X obj 72 16 r slew;
#X obj 72 41 *;
#X obj 72 66 * 200;
#X obj 19 95 pack f f;
#X obj 225 8 r slew;
#X obj 225 33 *;
#X obj 225 58 * 200;
#X obj 153 84 pack f f;
#X obj 398 13 r slew;
#X obj 398 38 *;
#X obj 398 63 * 200;
#X obj 326 89 pack f f;
#X connect 0 0 4 0;
#X connect 1 0 4 1;
#X connect 2 0 9 0;
#X connect 3 0 2 0;
#X connect 4 0 2 1;
#X connect 5 0 0 0;
#X connect 6 0 17 0;
#X connect 7 0 21 0;
#X connect 8 0 13 0;
#X connect 10 0 11 0;
#X connect 10 0 11 1;
#X connect 11 0 12 0;
#X connect 12 0 13 1;
#X connect 13 0 3 0;
#X connect 14 0 15 0;
#X connect 14 0 15 1;
#X connect 15 0 16 0;
#X connect 16 0 17 1;
#X connect 17 0 5 0;
#X connect 18 0 19 0;
#X connect 18 0 19 1;
#X connect 19 0 20 0;
#X connect 20 0 21 1;
#X connect 21 0 1 0;
#X restore 148 248 pd fb-fm-osc;
#N canvas 0 0 1377 1020 logistinette 0;
#N canvas 924 49 756 227 breath 0;
#X obj 25 19 inlet;
#X obj 26 254 outlet~;
#X msg 25 44 \$1 10;
#X obj 25 69 line~;
#X obj 26 209 +~;
#X obj 85 139 *~;
#X obj 103 106 noise~;
#X obj 45 168 *~, f 6;
#X obj 87 66 sig~;
#X obj 85 15 loadbang;
#X msg 85 40 0.02;
#X connect 0 0 2 0;
#X connect 2 0 3 0;
#X connect 3 0 4 0;
#X connect 3 0 7 0;
#X connect 4 0 1 0;
#X connect 5 0 7 1;
#X connect 6 0 5 1;
#X connect 7 0 4 1;
#X connect 8 0 5 0;
#X connect 9 0 10 0;
#X connect 10 0 8 0;
#X restore 30 83 pd breath;
#N canvas 0 49 924 1001 reed 0;
#X obj 206 130 inlet~;
#X obj 190 53 inlet~;
#X obj 207 164 +~ 1e-06;
#X obj 207 189 clip~ 0 1;
#X obj 232 215 *~ -1;
#X obj 232 240 +~ 1;
#X obj 208 265 *~, f 4;
#X obj 191 292 *~;
#X obj 190 78 *~ 1.3;
#X obj 190 103 +~ 2.7;
#X obj 191 317 outlet~;
#X connect 0 0 2 0;
#X connect 1 0 8 0;
#X connect 2 0 3 0;
#X connect 3 0 4 0;
#X connect 3 0 6 0;
#X connect 4 0 5 0;
#X connect 5 0 6 1;
#X connect 6 0 7 1;
#X connect 7 0 10 0;
#X connect 8 0 9 0;
#X connect 9 0 7 0;
#X restore 30 249 pd reed;
#X obj 145 35 inlet;
#X obj 144 92 delread4~ bore;
#X obj 144 144 *~ 2;
#X obj 144 169 -~ 1;
#X obj 144 194 hip~ 5;
#N canvas 0 0 1377 1020 hz-to-ms 0;
#X obj 34 175 line~;
#X obj 34 75 pack 1 f;
#X obj 55 43 t b f;
#X obj 34 100 /;
#X obj 34 125 * 1000;
#X obj 57 12 inlet;
#X obj 34 200 outlet~;
#X obj 107 75 r slew;
#X obj 107 100 *;
#X obj 107 125 * 200;
#X obj 35 151 pack f f;
#X connect 0 0 6 0;
#X connect 1 0 3 0;
#X connect 2 0 1 0;
#X connect 2 1 1 1;
#X connect 3 0 4 0;
#X connect 4 0 10 0;
#X connect 5 0 2 0;
#X connect 7 0 8 0;
#X connect 7 0 8 1;
#X connect 8 0 9 0;
#X connect 9 0 10 1;
#X connect 10 0 0 0;
#X restore 145 66 pd hz-to-ms;
#X obj 144 219 outlet~;
#X obj 30 35 inlet;
#X obj 145 118 lop~ 4000, f 16;
#X obj 348 141 block~ 1;
#N canvas 0 0 1159 1020 delay-write 0;
#X obj 37 37 inlet~;
#X obj 37 62 delwrite~ bore 96000;
#X connect 0 0 1 0;
#X restore 31 276 pd delay-write;
#X connect 0 0 1 0;
#X connect 1 0 12 0;
#X connect 2 0 7 0;
#X connect 3 0 10 0;
#X connect 4 0 5 0;
#X connect 5 0 6 0;
#X connect 6 0 8 0;
#X connect 7 0 3 0;
#X connect 9 0 0 0;
#X connect 10 0 1 1;
#X connect 10 0 4 0;
#X restore 10 248 pd logistinette;
#X obj 9 141 / 127;
#X obj 8 90 * 127;
#X obj 8 62 r energy;
#X obj 288 62 r timbre;
#X floatatom 153 216 5 0 0 0 - - - 0;
#X obj 153 191 mtof;
#X obj 736 69 r reverb;
#X obj 10 501 dac~;
#X obj 72 427 rev3~ 110 50 3000 0, f 29;
#X obj 192 399 + 70;
#X obj 192 374 * 25;
#X obj 10 334 bob~, f 84;
#X obj 442 217 mtof;
#X obj 595 62 r resonance;
#X obj 595 296 * 5;
#X obj 442 267 line~;
#X obj 57 141 / 160;
#X obj 102 141 / 150;
#N canvas 0 0 1377 1020 osc-xfade 0;
#X obj 36 258 +~;
#X obj 37 232 *~;
#X obj 207 233 *~;
#X obj 53 82 * -1;
#X obj 53 107 + 1;
#X obj 54 203 line~;
#X obj 222 197 line~;
#X obj 22 34 inlet~;
#X obj 161 30 inlet~;
#X obj 226 33 inlet;
#X obj 36 283 outlet~;
#X obj 105 97 r slew;
#X obj 105 122 *;
#X obj 105 147 * 200;
#X obj 53 176 pack f f;
#X obj 295 88 r slew;
#X obj 295 113 *;
#X obj 295 138 * 200;
#X obj 223 164 pack f f;
#X connect 0 0 10 0;
#X connect 1 0 0 0;
#X connect 2 0 0 1;
#X connect 3 0 4 0;
#X connect 4 0 14 0;
#X connect 5 0 1 1;
#X connect 6 0 2 1;
#X connect 7 0 1 0;
#X connect 8 0 2 0;
#X connect 9 0 3 0;
#X connect 9 0 18 0;
#X connect 11 0 12 0;
#X connect 11 0 12 1;
#X connect 12 0 13 0;
#X connect 13 0 14 1;
#X connect 14 0 5 0;
#X connect 15 0 16 0;
#X connect 15 0 16 1;
#X connect 16 0 17 0;
#X connect 17 0 18 1;
#X connect 18 0 6 0;
#X restore 11 291 pd osc-xfade;
#X f 40;
#N canvas 0 49 924 1001 rev-xfade 0;
#X obj 30 270 +~;
#X obj 29 221 *~;
#X obj 108 196 *~;
#X obj 46 92 * -1;
#X obj 46 117 + 1;
#X msg 46 142 \$1 10;
#X obj 46 167 line~;
#X msg 125 137 \$1 10;
#X obj 125 162 line~;
#X obj 185 196 *~;
#X msg 202 137 \$1 10;
#X obj 202 162 line~;
#X obj 168 270 +~;
#X obj 108 221 *~ 0.5;
#X obj 185 221 *~ 0.5;
#X obj 29 41 inlet~;
#X obj 107 41 inlet~;
#X obj 185 41 inlet~;
#X obj 276 41 inlet;
#X obj 30 302 outlet~;
#X obj 168 302 outlet~;
#X connect 0 0 19 0;
#X connect 1 0 0 0;
#X connect 1 0 12 0;
#X connect 2 0 13 0;
#X connect 3 0 4 0;
#X connect 4 0 5 0;
#X connect 5 0 6 0;
#X connect 6 0 1 1;
#X connect 7 0 8 0;
#X connect 8 0 2 1;
#X connect 9 0 14 0;
#X connect 10 0 11 0;
#X connect 11 0 9 1;
#X connect 12 0 20 0;
#X connect 13 0 0 1;
#X connect 14 0 12 1;
#X connect 15 0 1 0;
#X connect 16 0 2 0;
#X connect 17 0 9 0;
#X connect 18 0 3 0;
#X connect 18 0 7 0;
#X connect 18 0 10 0;
#X restore 9 464 pd rev-xfade;
#X f 28;
#X obj 297 9 inlet;
#X obj 350 8 inlet;
#X obj 581 9 inlet;
#X obj 402 6 inlet;
#X obj 245 8 inlet;
#X obj 463 10 inlet;
#X obj 442 108 * 135;
#X obj 442 133 + 1;
#X obj 873 97 t f;
#X obj 873 47 loadbang;
#X msg 873 72 64;
#X obj 153 62 r frequency;
#X obj 443 61 r cutoff;
#N canvas 0 0 1377 1020 libmapper 0;
#X obj 15 126 mapper @alias studysynth;
#X obj 15 15 loadbang;
#X msg 15 101 add input \$1 @type f @units normalized @min 0 @max 1
;
#X obj 22 304 send;
#X obj 15 170 list split 1;
#X obj 105 234 list;
#X obj 15 199 t b a;
#X obj 105 259 list trim;
#X obj 101 305 symbol;
#X obj 15 71 list;
#X obj 47 252 symbol;
#X msg 417 101 add input frequency @type f @units MIDI-note-number
@min 0 @max 127;
#X msg 15 40 energy \, timbre \, cutoff \, resonance \, reverb \, slew
;
#X connect 0 0 4 0;
#X connect 1 0 12 0;
#X connect 1 0 11 0;
#X connect 2 0 0 0;
#X connect 4 0 6 0;
#X connect 4 1 5 1;
#X connect 5 0 7 0;
#X connect 6 0 5 0;
#X connect 6 1 10 0;
#X connect 7 0 3 0;
#X connect 9 0 2 0;
#X connect 10 0 3 1;
#X connect 11 0 0 0;
#X connect 12 0 9 0;
#X restore 646 501 pd libmapper;
#X obj 923 342 * 127;
#X obj 923 315 r energy;
#X obj 935 843 r timbre;
#X obj 935 870 * 127;
#X obj 925 739 * 127;
#X obj 925 712 r reverb;
#X obj 913 590 * 127;
#X obj 915 563 r resonance;
#X obj 927 197 * 127;
#X obj 830 448 r frequency;
#X obj 927 170 r cutoff;
#X obj 1012 225 hsl 256 50 0 127 0 0 empty empty empty -2 -8 0 10 #fcfcfc
#000000 #000000 0 1;
#X obj 1011 319 hsl 256 50 0 127 0 0 empty empty empty -2 -8 0 10 #fcfcfc
#000000 #000000 0 1;
#X text 1007 298 energy;
#X obj 1009 406 hsl 256 50 0 127 0 0 empty empty empty -2 -8 0 10 #fcfcfc
#000000 #000000 0 1;
#X obj 1012 492 hsl 256 50 0 127 0 0 empty empty empty -2 -8 0 10 #fcfcfc
#000000 #000000 0 1;
#X text 1008 472 resonance;
#X text 1007 389 frequency;
#X text 1008 205 cutoff;
#X obj 1013 580 hsl 256 50 0 127 0 0 empty empty empty -2 -8 0 10 #fcfcfc
#000000 #000000 0 1;
#X text 1010 560 reverb;
#X obj 1013 768 hsl 256 50 0 127 0 0 empty empty empty -2 -8 0 10 #fcfcfc
#000000 #000000 0 1;
#X text 1009 743 timbre;
#X msg 927 223 set \$1;
#X msg 922 367 set \$1;
#X msg 830 471 set \$1;
#X msg 913 622 set \$1;
#X msg 930 765 set \$1;
#X msg 935 904 set \$1;
#X obj 923 282 s cutoff;
#X obj 923 259 / 127;
#X obj 735 353 t f;
#X obj 919 427 s energy;
#X obj 919 402 / 127;
#X obj 817 573 s frequency;
#X obj 909 652 / 127;
#X obj 909 675 s resonance;
#X obj 926 818 s reverb;
#X obj 926 793 / 127;
#X obj 930 932 / 127;
#X obj 931 955 s timbre;
#X obj 442 177 clip 0 135;
#X obj 757 627 * 127;
#X obj 1015 680 hsl 256 50 0 127 0 0 empty empty empty -2 -8 0 10 #fcfcfc
#000000 #000000 0 1;
#X msg 757 661 set \$1;
#X obj 750 727 / 127;
#X obj 757 600 r slew;
#X obj 751 750 s slew;
#X text 1010 656 slew;
#X obj 442 242 pack f f;
#X obj 528 170 r slew;
#X obj 528 195 *;
#X obj 528 220 * 200;
#X obj 520 11 inlet;
#X obj 710 41 s slew;
#X connect 0 0 20 1;
#X connect 1 0 20 0;
#X connect 2 0 1 0;
#X connect 3 0 19 0;
#X connect 3 0 18 0;
#X connect 3 0 2 0;
#X connect 4 0 3 0;
#X connect 5 0 20 2;
#X connect 6 0 0 1;
#X connect 6 0 1 1;
#X connect 7 0 6 0;
#X connect 8 0 67 0;
#X connect 10 0 21 1;
#X connect 10 1 21 2;
#X connect 11 0 10 3;
#X connect 12 0 11 0;
#X connect 13 0 10 1;
#X connect 13 0 10 0;
#X connect 13 0 21 0;
#X connect 14 0 85 0;
#X connect 15 0 16 0;
#X connect 16 0 13 2;
#X connect 17 0 13 1;
#X connect 18 0 0 0;
#X connect 19 0 0 2;
#X connect 20 0 13 0;
#X connect 21 0 9 0;
#X connect 21 1 9 1;
#X connect 22 0 3 0;
#X connect 23 0 7 0;
#X connect 24 0 20 2;
#X connect 25 0 16 0;
#X connect 26 0 28 0;
#X connect 27 0 67 0;
#X connect 28 0 29 0;
#X connect 29 0 77 0;
#X connect 30 0 47 0;
#X connect 30 0 48 0;
#X connect 30 0 50 0;
#X connect 30 0 51 0;
#X connect 30 0 55 0;
#X connect 30 0 57 0;
#X connect 30 0 79 0;
#X connect 31 0 32 0;
#X connect 32 0 30 0;
#X connect 33 0 7 0;
#X connect 34 0 28 0;
#X connect 36 0 60 0;
#X connect 37 0 36 0;
#X connect 38 0 39 0;
#X connect 39 0 64 0;
#X connect 40 0 63 0;
#X connect 41 0 40 0;
#X connect 42 0 62 0;
#X connect 43 0 42 0;
#X connect 44 0 59 0;
#X connect 45 0 61 0;
#X connect 46 0 44 0;
#X connect 47 0 66 0;
#X connect 48 0 69 0;
#X connect 50 0 70 0;
#X connect 51 0 71 0;
#X connect 55 0 74 0;
#X connect 57 0 75 0;
#X connect 59 0 47 0;
#X connect 60 0 48 0;
#X connect 61 0 50 0;
#X connect 62 0 51 0;
#X connect 63 0 55 0;
#X connect 64 0 57 0;
#X connect 66 0 65 0;
#X connect 67 0 12 0;
#X connect 67 0 21 3;
#X connect 69 0 68 0;
#X connect 71 0 72 0;
#X connect 74 0 73 0;
#X connect 75 0 76 0;
#X connect 77 0 14 0;
#X connect 78 0 80 0;
#X connect 79 0 81 0;
#X connect 80 0 79 0;
#X connect 81 0 83 0;
#X connect 82 0 78 0;
#X connect 85 0 17 0;
#X connect 86 0 87 0;
#X connect 86 0 87 1;
#X connect 87 0 88 0;
#X connect 88 0 85 1;
#X connect 89 0 90 0;
#X coords 0 -1 1 1 280 650 1 1000 150;
