#N canvas 0 0 922 1018 12;
#N canvas 0 0 922 1018 fb-fm-osc 0;
#X obj 152 165 phasor~;
#X obj 326 142 line~;
#X obj 20 229 *~, f 9;
#X obj 20 200 line~;
#N canvas 0 0 922 1018 fb-fm-core 0;
#X obj 29 98 +~;
#X obj 29 123 cos~;
#X obj 175 146 block~ 1;
#X obj 88 156 *~;
#X obj 175 116 array define fm-fb 1;
#X obj 29 28 inlet~;
#X obj 174 193 tabsend~ fm-fb;
#X obj 175 52 *~ 0.5;
#X obj 175 27 tabreceive~ fm-fb;
#X obj 107 27 inlet~;
#X obj 29 193 outlet~;
#X obj 175 77 rzero~ -1;
#X connect 0 0 1 0;
#X connect 1 0 3 0;
#X connect 1 0 10 0;
#X connect 3 0 6 0;
#X connect 5 0 0 0;
#X connect 7 0 11 0;
#X connect 8 0 7 0;
#X connect 9 0 3 1;
#X connect 11 0 0 1;
#X restore 152 195 pd fb-fm-core;
#X obj 153 136 line~;
#X obj 153 14 inlet;
#X obj 326 38 inlet;
#X obj 19 25 inlet;
#X obj 20 276 outlet~;
#X obj 72 41 *;
#X obj 72 66 * 200;
#X obj 19 95 pack f f;
#X obj 225 33 *;
#X obj 225 58 * 200;
#X obj 153 84 pack f f;
#X obj 398 38 *;
#X obj 398 63 * 200;
#X obj 326 89 pack f f;
#X obj 72 16 r \$0-slew;
#X obj 225 8 r \$0-slew;
#X obj 398 13 r \$0-slew;
#X connect 0 0 4 0;
#X connect 1 0 4 1;
#X connect 2 0 9 0;
#X connect 3 0 2 0;
#X connect 4 0 2 1;
#X connect 5 0 0 0;
#X connect 6 0 15 0;
#X connect 7 0 18 0;
#X connect 8 0 12 0;
#X connect 10 0 11 0;
#X connect 11 0 12 1;
#X connect 12 0 3 0;
#X connect 13 0 14 0;
#X connect 14 0 15 1;
#X connect 15 0 5 0;
#X connect 16 0 17 0;
#X connect 17 0 18 1;
#X connect 18 0 1 0;
#X connect 19 0 10 0;
#X connect 19 0 10 1;
#X connect 20 0 13 0;
#X connect 20 0 13 1;
#X connect 21 0 16 0;
#X connect 21 0 16 1;
#X restore 148 192 pd fb-fm-osc;
#N canvas 0 0 922 1018 logistinette 0;
#N canvas 0 0 922 1018 breath 0;
#X obj 25 19 inlet;
#X obj 26 254 outlet~;
#X msg 25 44 \$1 10;
#X obj 25 69 line~;
#X obj 26 209 +~;
#X obj 85 139 *~;
#X obj 103 106 noise~;
#X obj 45 168 *~, f 6;
#X obj 87 66 sig~;
#X obj 85 15 loadbang;
#X msg 85 40 0.02;
#X connect 0 0 2 0;
#X connect 2 0 3 0;
#X connect 3 0 4 0;
#X connect 3 0 7 0;
#X connect 4 0 1 0;
#X connect 5 0 7 1;
#X connect 6 0 5 1;
#X connect 7 0 4 1;
#X connect 8 0 5 0;
#X connect 9 0 10 0;
#X connect 10 0 8 0;
#X restore 30 83 pd breath;
#N canvas 0 0 922 1018 reed 0;
#X obj 206 130 inlet~;
#X obj 190 53 inlet~;
#X obj 207 164 +~ 1e-06;
#X obj 207 189 clip~ 0 1;
#X obj 232 215 *~ -1;
#X obj 232 240 +~ 1;
#X obj 208 265 *~, f 4;
#X obj 191 292 *~;
#X obj 190 78 *~ 1.3;
#X obj 190 103 +~ 2.7;
#X obj 191 317 outlet~;
#X connect 0 0 2 0;
#X connect 1 0 8 0;
#X connect 2 0 3 0;
#X connect 3 0 4 0;
#X connect 3 0 6 0;
#X connect 4 0 5 0;
#X connect 5 0 6 1;
#X connect 6 0 7 1;
#X connect 7 0 10 0;
#X connect 8 0 9 0;
#X connect 9 0 7 0;
#X restore 30 249 pd reed;
#X obj 145 35 inlet;
#X obj 144 92 delread4~ bore;
#X obj 144 144 *~ 2;
#X obj 144 169 -~ 1;
#X obj 144 194 hip~ 5;
#N canvas 0 0 922 1018 hz-to-ms 0;
#X obj 34 175 line~;
#X obj 34 75 pack 1 f;
#X obj 55 43 t b f;
#X obj 34 100 /;
#X obj 34 125 * 1000;
#X obj 57 12 inlet;
#X obj 34 200 outlet~;
#X obj 107 100 *;
#X obj 107 125 * 200;
#X obj 35 151 pack f f;
#X obj 107 75 r \$0-slew;
#X connect 0 0 6 0;
#X connect 1 0 3 0;
#X connect 2 0 1 0;
#X connect 2 1 1 1;
#X connect 3 0 4 0;
#X connect 4 0 9 0;
#X connect 5 0 2 0;
#X connect 7 0 8 0;
#X connect 8 0 9 1;
#X connect 9 0 0 0;
#X connect 10 0 7 0;
#X connect 10 0 7 1;
#X restore 145 66 pd hz-to-ms;
#X obj 144 219 outlet~;
#X obj 30 35 inlet;
#X obj 145 118 lop~ 4000, f 16;
#X obj 348 141 block~ 1;
#N canvas 0 0 1159 1020 delay-write 0;
#X obj 37 37 inlet~;
#X obj 37 62 delwrite~ bore 96000;
#X connect 0 0 1 0;
#X restore 31 276 pd delay-write;
#X connect 0 0 1 0;
#X connect 1 0 12 0;
#X connect 2 0 7 0;
#X connect 3 0 10 0;
#X connect 4 0 5 0;
#X connect 5 0 6 0;
#X connect 6 0 8 0;
#X connect 7 0 3 0;
#X connect 9 0 0 0;
#X connect 10 0 1 1;
#X connect 10 0 4 0;
#X restore 10 192 pd logistinette;
#X obj 9 85 / 127;
#X obj 8 34 * 127;
#X floatatom 153 160 5 0 0 0 - - - 0;
#X obj 153 135 mtof;
#X obj 10 278 bob~, f 84;
#X obj 412 161 mtof;
#X obj 595 240 * 5;
#X obj 412 211 line~;
#X obj 57 85 / 160;
#X obj 102 85 / 150;
#N canvas 0 0 1377 1020 osc-xfade 0;
#X obj 36 258 +~;
#X obj 37 232 *~;
#X obj 207 233 *~;
#X obj 53 82 * -1;
#X obj 53 107 + 1;
#X obj 54 203 line~;
#X obj 222 197 line~;
#X obj 22 34 inlet~;
#X obj 161 30 inlet~;
#X obj 226 33 inlet;
#X obj 36 283 outlet~;
#X obj 105 97 r slew;
#X obj 105 122 *;
#X obj 105 147 * 200;
#X obj 53 176 pack f f;
#X obj 295 88 r slew;
#X obj 295 113 *;
#X obj 295 138 * 200;
#X obj 223 164 pack f f;
#X connect 0 0 10 0;
#X connect 1 0 0 0;
#X connect 2 0 0 1;
#X connect 3 0 4 0;
#X connect 4 0 14 0;
#X connect 5 0 1 1;
#X connect 6 0 2 1;
#X connect 7 0 1 0;
#X connect 8 0 2 0;
#X connect 9 0 3 0;
#X connect 9 0 18 0;
#X connect 11 0 12 0;
#X connect 11 0 12 1;
#X connect 12 0 13 0;
#X connect 13 0 14 1;
#X connect 14 0 5 0;
#X connect 15 0 16 0;
#X connect 15 0 16 1;
#X connect 16 0 17 0;
#X connect 17 0 18 1;
#X connect 18 0 6 0;
#X restore 11 235 pd osc-xfade;
#X f 40;
#X obj 8 8 inlet;
#X obj 153 8 inlet;
#X obj 288 8 inlet;
#X obj 595 8 inlet;
#X obj 412 8 inlet;
#X obj 412 52 * 135;
#X obj 412 77 + 1;
#X obj 412 121 clip 0 135;
#X obj 412 186 pack f f;
#X obj 498 139 *;
#X obj 498 164 * 200;
#X obj 744 12 inlet;
#X obj 11 307 outlet~;
#X obj 744 36 s \$0-slew;
#X obj 498 114 r \$0-slew;
#X text 57 9 energy;
#X text 207 12 pitch;
#X text 342 10 timbre;
#X text 460 8 cutoff;
#X text 650 8 resonance;
#X text 793 10 slew;
#X connect 0 0 12 1;
#X connect 1 0 12 0;
#X connect 2 0 1 0;
#X connect 3 0 11 0;
#X connect 3 0 10 0;
#X connect 3 0 2 0;
#X connect 4 0 0 1;
#X connect 4 0 1 1;
#X connect 5 0 4 0;
#X connect 6 0 25 0;
#X connect 7 0 21 0;
#X connect 8 0 6 2;
#X connect 9 0 6 1;
#X connect 10 0 0 0;
#X connect 11 0 0 2;
#X connect 12 0 6 0;
#X connect 13 0 3 0;
#X connect 14 0 5 0;
#X connect 15 0 12 2;
#X connect 16 0 8 0;
#X connect 17 0 18 0;
#X connect 18 0 19 0;
#X connect 19 0 20 0;
#X connect 20 0 7 0;
#X connect 21 0 9 0;
#X connect 22 0 23 0;
#X connect 23 0 21 1;
#X connect 24 0 26 0;
#X connect 27 0 22 0;
#X connect 27 0 22 1;
#X coords 0 1018 1 1017 280 650 0;
